<svg width="1440" height="436" viewBox="0 0 1440 436" fill="none" xmlns="http://www.w3.org/2000/svg">
<g opacity="0.05">
<path d="M1792.15 -251.926L-4.56982 -733.355L-485.999 1063.36L1310.72 1544.79L1792.15 -251.926Z" stroke="#080133" stroke-miterlimit="10"/>
<path d="M-309.857 405.991L1486.86 887.42" stroke="#080133" stroke-miterlimit="10"/>
<path d="M-298.138 362.257L1498.58 843.686" stroke="#080133" stroke-miterlimit="10"/>
<path d="M-286.36 318.302L1510.36 799.731" stroke="#080133" stroke-miterlimit="10"/>
<path d="M-274.642 274.564L1522.07 755.993" stroke="#080133" stroke-miterlimit="10"/>
<path d="M-262.921 230.83L1533.8 712.259" stroke="#080133" stroke-miterlimit="10"/>
<path d="M-251.144 186.875L1545.57 668.304" stroke="#080133" stroke-miterlimit="10"/>
<path d="M-239.424 143.135L1557.29 624.564" stroke="#080133" stroke-miterlimit="10"/>
<path d="M-227.646 99.1801L1569.07 580.609" stroke="#080133" stroke-miterlimit="10"/>
<path d="M-215.927 55.4442L1580.79 536.873" stroke="#080133" stroke-miterlimit="10"/>
<path d="M-204.208 11.7042L1592.51 493.133" stroke="#080133" stroke-miterlimit="10"/>
<path d="M-192.43 -32.2509L1604.29 449.178" stroke="#080133" stroke-miterlimit="10"/>
<path d="M-180.71 -75.9889L1616.01 405.44" stroke="#080133" stroke-miterlimit="10"/>
<path d="M-168.932 -119.944L1627.78 361.485" stroke="#080133" stroke-miterlimit="10"/>
<path d="M-157.213 -163.682L1639.5 317.747" stroke="#080133" stroke-miterlimit="10"/>
<path d="M-145.494 -207.418L1651.22 274.011" stroke="#080133" stroke-miterlimit="10"/>
<path d="M-133.716 -251.375L1663 230.054" stroke="#080133" stroke-miterlimit="10"/>
<path d="M-121.997 -295.107L1674.72 186.322" stroke="#080133" stroke-miterlimit="10"/>
<path d="M-110.278 -338.847L1686.44 142.582" stroke="#080133" stroke-miterlimit="10"/>
<path d="M-98.5 -382.804L1698.22 98.6248" stroke="#080133" stroke-miterlimit="10"/>
<path d="M-86.7805 -426.538L1709.94 54.8909" stroke="#080133" stroke-miterlimit="10"/>
<path d="M-75.0027 -470.493L1721.71 10.9357" stroke="#080133" stroke-miterlimit="10"/>
<path d="M107.299 -703.379L-374.13 1093.34" stroke="#080133" stroke-miterlimit="10"/>
<path d="M213.016 -675.052L-268.413 1121.66" stroke="#080133" stroke-miterlimit="10"/>
<path d="M312.795 -648.319L-168.633 1148.4" stroke="#080133" stroke-miterlimit="10"/>
<path d="M406.643 -623.17L-74.7862 1173.55" stroke="#080133" stroke-miterlimit="10"/>
<path d="M495.435 -599.379L14.0058 1197.34" stroke="#080133" stroke-miterlimit="10"/>
<path d="M579.172 -576.941L97.7431 1219.78" stroke="#080133" stroke-miterlimit="10"/>
<path d="M658.072 -555.799L176.644 1240.92" stroke="#080133" stroke-miterlimit="10"/>
<path d="M732.359 -535.897L250.93 1260.82" stroke="#080133" stroke-miterlimit="10"/>
<path d="M802.689 -517.05L321.26 1279.67" stroke="#080133" stroke-miterlimit="10"/>
<path d="M869.063 -499.269L387.635 1297.45" stroke="#080133" stroke-miterlimit="10"/>
<path d="M931.481 -482.54L450.053 1314.18" stroke="#080133" stroke-miterlimit="10"/>
<path d="M990.603 -466.699L509.175 1330.02" stroke="#080133" stroke-miterlimit="10"/>
<path d="M1046.21 -451.802L564.778 1344.91" stroke="#080133" stroke-miterlimit="10"/>
<path d="M1098.73 -437.726L617.306 1358.99" stroke="#080133" stroke-miterlimit="10"/>
<path d="M1148.19 -424.475L666.758 1372.24" stroke="#080133" stroke-miterlimit="10"/>
<path d="M1194.78 -411.987L713.351 1384.73" stroke="#080133" stroke-miterlimit="10"/>
<path d="M1238.96 -400.153L757.527 1396.56" stroke="#080133" stroke-miterlimit="10"/>
<path d="M1280.5 -389.02L799.067 1407.7" stroke="#080133" stroke-miterlimit="10"/>
<path d="M1319.84 -378.479L838.407 1418.24" stroke="#080133" stroke-miterlimit="10"/>
<path d="M1356.76 -368.585L875.33 1428.13" stroke="#080133" stroke-miterlimit="10"/>
<path d="M1391.71 -359.224L910.277 1437.49" stroke="#080133" stroke-miterlimit="10"/>
<path d="M1424.67 -350.392L943.244 1446.32" stroke="#080133" stroke-miterlimit="10"/>
<path d="M1455.66 -342.088L974.232 1454.63" stroke="#080133" stroke-miterlimit="10"/>
<path d="M1485.11 -334.196L1003.68 1462.52" stroke="#080133" stroke-miterlimit="10"/>
<path d="M1512.58 -326.835L1031.16 1469.88" stroke="#080133" stroke-miterlimit="10"/>
<path d="M1538.74 -319.826L1057.31 1476.89" stroke="#080133" stroke-miterlimit="10"/>
<path d="M1563.36 -313.231L1081.93 1483.49" stroke="#080133" stroke-miterlimit="10"/>
<path d="M1586.65 -306.99L1105.22 1489.73" stroke="#080133" stroke-miterlimit="10"/>
<path d="M1608.41 -301.157L1126.98 1495.56" stroke="#080133" stroke-miterlimit="10"/>
<path d="M1629.07 -295.623L1147.64 1501.09" stroke="#080133" stroke-miterlimit="10"/>
<path d="M1648.63 -290.38L1167.2 1506.34" stroke="#080133" stroke-miterlimit="10"/>
<path d="M1667.09 -285.432L1185.66 1511.28" stroke="#080133" stroke-miterlimit="10"/>
<path d="M1684.45 -280.784L1203.03 1515.93" stroke="#080133" stroke-miterlimit="10"/>
<path d="M1700.72 -276.422L1219.29 1520.29" stroke="#080133" stroke-miterlimit="10"/>
<path d="M1716.32 -272.242L1234.89 1524.47" stroke="#080133" stroke-miterlimit="10"/>
<path d="M1730.83 -268.358L1249.4 1528.36" stroke="#080133" stroke-miterlimit="10"/>
<path d="M1744.45 -264.707L1263.03 1532.01" stroke="#080133" stroke-miterlimit="10"/>
<path d="M1757.42 -261.228L1275.99 1535.49" stroke="#080133" stroke-miterlimit="10"/>
<path d="M1769.73 -257.931L1288.3 1538.79" stroke="#080133" stroke-miterlimit="10"/>
<path d="M1781.16 -254.868L1299.73 1541.85" stroke="#080133" stroke-miterlimit="10"/>
</g>
</svg>
